<svg xml:space="preserve" style="enable-background:new 0 0 500 500;" viewBox="0 0 500 500" y="0px" x="0px" xmlns:xlink="http://www.w3.org/1999/xlink" xmlns="http://www.w3.org/2000/svg" id="图层_1" version="1.1">
<style type="text/css">
	.st0{fill:#E89F4F;}
	.st1{fill:#FFFDF0;}
	.st2{fill:#F58D84;}
	.st3{fill:#683E35;}
	.st4{fill:#FFFFFF;}
	.st5{fill:#F9F4E1;}
</style>
<g>
	<g>
		<path d="M89.23,265.06c0,0-21.9,33.9-11.47,68.06c2.61,6.52,12,40.68,59.72,42.24c47.72,1.56,34.68-4.95,92.57-3.91
			c57.89,1.04,116.83,0.52,120.48-1.83c3.65-2.35,7.3-10.95-0.78-15.65c-8.08-4.69,13.04-2.09,13.04-2.09s2.35,6.52,12,10.43
			s22.17,3.65,22.95-6.78s-5.74-16.69-5.74-16.69l2.87-16.95c0,0,12-2.35,6.78-10.69c-5.22-8.34-23.73-8.34-34.68-8.61
			c-2.09-5.48,12-71.97-75.36-88.66c-2.61-10.69-5.74-73.8-34.16-59.46c-3.39-1.3-19.3-19.56-31.29-9.91
			c-12,9.65-17.47,37.81-14.08,79.01c2.87,10.69,1.56,8.34,1.56,8.34s-15.39-6.78-19.04,2.87c-6.26,2.35-49.29-7.82-91.53,16.43
			c-3.39-4.95-7.82-22.17-26.34-8.08C67.32,251.5,75.41,275.49,89.23,265.06z" class="st0"></path>
	</g>
	<g>
		<g>
			<path d="M356.82,365.3c0.55-4.78-13.58-15.18-13.58-15.18s13.58,1.6,27.16,2s19.17-7.99,24.76-22.36
				s-3.99-26.36-3.99-26.36l-26.76,0.4c-0.4,14.38-19.7,12.15-30.88,16.94c-11.18,4.79-46.73-17.67-43.8-1.76
				c1.93,10.46,17.17,30.75,17.17,30.75s-43.13-1.6-69.89,1.2c-26.76,2.8-29.95,18.37-29.95,18.37S355.35,378.07,356.82,365.3z" class="st1"></path>
		</g>
		<g>
			<path d="M331.37,349.92c0,0-10.24-18.63,3.16-23.32s24.08,15.25,24.3,21.25c0.22,5.99-5.99,9.48-5.99,9.48
				s-10.46-6.86-15.91-5.77C331.48,352.64,331.37,349.92,331.37,349.92z" class="st2"></path>
		</g>
		<g>
			<path d="M138.22,350.2c0,0-18.31,13.41-14.39,21.58c3.92,8.17,35.64,0.98,41.53,0.98s10.79-26.81-6.87-25.83
				C140.84,347.91,138.22,350.2,138.22,350.2z" class="st1"></path>
		</g>
		<g>
			<path d="M369.18,355.53c-3.27,0-6.79-0.38-10.56-1.14c-1.87-0.38-3.08-2.2-2.71-4.07c0.38-1.87,2.2-3.09,4.07-2.71
				c12.66,2.55,21.62,0.16,26.64-7.09c7.43-10.74,4.63-28.77,2.88-33.59c-6.08-0.45-24.4-1.66-24.61-1.68
				c-0.97-0.06-1.86-0.53-2.47-1.29c-0.61-0.76-0.87-1.73-0.72-2.69c0.05-0.34,5.01-34.65-16.34-58.71
				c-15.11-17.02-39.71-25.11-73.06-24.01c-1.91,0.05-3.46-1.39-3.56-3.26c-0.03-0.48-2.91-47.96-22.06-64.11
				c-4.78-4.03-10.05-5.66-16.1-4.97c-2.26,0.27-4.43,1.99-6.44,5.11c-4.79,7.45-8.07,22.04-9,40.02
				c-0.83,16.09,0.42,32.02,3.17,40.59c0.4,1.24,0.07,2.6-0.86,3.51c-0.93,0.92-2.29,1.23-3.52,0.82l-0.59-0.2
				c-3.8-1.27-12.7-4.26-16.58-2.09c-0.6,0.34-1.34,0.93-1.7,2.51c-0.43,1.86-2.29,3.02-4.14,2.59c-1.86-0.43-3.02-2.28-2.59-4.14
				c0.72-3.12,2.47-5.53,5.06-6.98c4.76-2.66,11.41-1.6,16.79-0.11c-4.31-21.94-2.55-63.62,8.15-80.25
				c3.18-4.95,7.03-7.72,11.46-8.24c7.95-0.9,15.13,1.31,21.35,6.56c18.45,15.58,23.2,54,24.24,65.66
				c33.91-0.53,59.18,8.38,75.19,26.46c19.4,21.9,19.17,50.42,18.36,60.57c6.68,0.44,20.46,1.37,22.81,1.58
				c2.5,0.23,3.51,2.64,3.89,3.55c3,7.16,5.93,29.53-4.62,42.42C385.92,352.39,378.6,355.53,369.18,355.53z" class="st3"></path>
		</g>
		<g>
			<path d="M151.33,378.4c-3.18,0-6.14-0.04-8.24-0.08c-9.16-0.18-25.66-0.84-33.28-3.22c-0.3-0.09-0.58-0.23-0.85-0.4
				c-19.81-12.81-31.9-29.06-35.93-48.29c-4.62-22.08,2.47-42.64,7.91-54.2c-1.25-0.26-2.48-0.8-3.65-1.6
				c-5.59-3.85-8.38-13.23-6.35-21.35c2-8.02,8.59-12.77,14.08-14.54c5.06-1.63,9.88-1.08,12.89,1.46c2.77,2.34,4.83,5.88,5.8,9.96
				c0.12,0.5,0.22,1.03,0.31,1.58c51.99-26.41,100.64-11.31,102.76-10.63c1.82,0.58,2.82,2.53,2.23,4.35
				c-0.58,1.82-2.53,2.81-4.34,2.23l0,0c-0.51-0.16-51.38-15.86-102.63,12.94c-1.32,0.74-2.98,0.54-4.08-0.51
				c-1.1-1.05-1.39-2.69-0.71-4.05c0.47-1.31-0.09-7.45-3.81-10.59c-0.94-0.79-3.25-1.15-6.31-0.16c-3.72,1.2-8.17,4.36-9.49,9.64
				c-1.47,5.89,0.66,11.98,3.57,13.98c1.17,0.81,2.23,0.76,3.54-0.16c0.05-0.04,0.1-0.07,0.15-0.11c0.7-1.19,1.17-1.91,1.28-2.08
				c0.37-0.56,0.9-1,1.52-1.27c3.01-1.29,5.11-0.93,6.22,1.07c1.53,2.76-0.6,4.74-3.74,7.01c-4.47,8.06-15.51,31.25-10.37,55.67
				c3.62,17.2,14.55,31.86,32.5,43.58c11.35,3.26,46.93,3.2,53.44,2.38c1.31-2.06,3.97-8.38,2.53-13.49
				c-0.94-3.35-3.52-5.61-7.88-6.91c-0.12-0.04-0.23-0.08-0.34-0.12c-6.49-2.71-18.19,1.3-22.14,3.07c-1.74,0.78-3.78,0-4.57-1.74
				c-0.78-1.74-0.01-3.78,1.73-4.57c0.17-0.08,4.23-1.89,9.52-3.21c7.35-1.84,13.38-1.84,17.94,0c9.55,2.91,12.29,9.31,12.9,14.19
				c1.03,8.18-3.38,17.25-6.06,18.87C167.61,378.16,158.84,378.4,151.33,378.4z M165.38,371.51L165.38,371.51L165.38,371.51z" class="st3"></path>
		</g>
		<g>
			<path d="M248.78,375.31c-39.39,0-77.01-0.07-80.13-0.07c-1.91,0-3.45-1.55-3.45-3.46c0-1.91,1.55-3.45,3.45-3.45
				c0,0,0,0,0.01,0c1.56,0,155.85,0.27,171.68-0.28c6.09-0.21,10.21-1.73,11.3-4.17c0.84-1.88-0.08-4.73-2.49-7.63
				c-1.95-2.35-4.22-3.54-6.77-3.54c-0.02,0-0.05,0-0.07,0c-2.7,0.02-4.97,1.41-5.54,2.12c-0.69,0.87-1.77,1.35-2.87,1.29
				c-1.11-0.06-2.12-0.64-2.73-1.58c-3.49-5.41-16.32-4.29-20.55-3.47c-1.87,0.36-3.69-0.86-4.05-2.73
				c-0.36-1.87,0.86-3.69,2.73-4.05c1.91-0.37,17.2-3.07,25.16,3.66c2.07-1.21,4.79-2.12,7.78-2.15c3.23,0,8.04,1,12.22,6.05
				c4.18,5.05,5.44,10.47,3.46,14.87c-1.59,3.54-5.9,7.84-17.37,8.24C332.46,375.24,289.66,375.31,248.78,375.31z" class="st3"></path>
		</g>
		<g>
			<path d="M386.57,368.56c-10.03,0-21.42-7.82-22.72-9c-1.41-1.28-1.52-3.47-0.23-4.88s3.47-1.52,4.88-0.23
				c1.36,1.22,12.42,8.15,19.59,7.1c1.9-0.28,3.22-1.12,4.13-2.62c5.27-8.73,0.15-16.26-0.07-16.58c-1.09-1.56-0.72-3.71,0.83-4.81
				c1.55-1.1,3.69-0.75,4.79,0.8c0.33,0.46,8.02,11.46,0.36,24.16c-1.98,3.28-5.11,5.32-9.06,5.89
				C388.25,368.5,387.41,368.56,386.57,368.56z" class="st3"></path>
		</g>
		<g>
			<path d="M357.94,352.44c-1.86,0-3.39-1.48-3.45-3.35c-0.12-4.07-3.61-15.75-9.81-19.92
				c-2.21-1.48-4.41-1.74-6.92-0.8c-4.38,1.63-6.74,4.58-7.24,9.02c-0.41,3.68,0.66,6.97,0.67,7.01c0.59,1.81-0.38,3.76-2.19,4.36
				c-1.81,0.6-3.75-0.36-4.36-2.17c-0.06-0.18-1.52-4.57-1.01-9.7c0.7-7.12,4.86-12.45,11.72-15.01c4.58-1.71,9.14-1.17,13.19,1.54
				c8.79,5.91,12.71,20.4,12.86,25.45c0.06,1.91-1.44,3.5-3.35,3.56C358.01,352.44,357.98,352.44,357.94,352.44z" class="st3"></path>
		</g>
		<g>
			<path d="M379.74,302.92c0,1.23,1.85,17.07,14.81,17.27c12.96,0.21,6.96-19.17-3.1-16.58
				C383.44,302.92,379.74,302.92,379.74,302.92z" class="st3"></path>
			<path d="M394.76,323.65c-0.09,0-0.18,0-0.26,0c-15.04-0.24-18.21-17.37-18.21-20.73c0-1.91,1.55-3.46,3.46-3.46
				c0.15,0,3.78,0.01,11.47,0.67c4-0.78,8.01,0.76,10.84,4.21c3.35,4.09,4.3,9.8,2.32,13.9
				C403.4,320.28,400.85,323.65,394.76,323.65z M383.91,306.53c1.13,4.08,3.94,10.1,10.7,10.21c2.83,0.07,3.37-1.12,3.55-1.5
				c0.8-1.65,0.15-4.57-1.45-6.52c-0.89-1.09-2.38-2.28-4.4-1.76c-0.38,0.1-0.77,0.13-1.16,0.1
				C388.12,306.8,385.71,306.63,383.91,306.53z" class="st3"></path>
		</g>
		<g>
			<path d="M457.48,305.59c0,0,14.4-4.94,17.27,7.2c2.88,12.13-9.87,16.04-17.89,12.54
				c-0.82,2.26-12.34,24.68-12.34,24.68s14.6,11.52-0.82,19.54s-16.04-9.87-16.04-9.87s-16.66,8.23-16.45-8.02
				c0.21-16.25,18.92-6.58,18.92-6.58l12.54-25.91c0,0-16.45-12.13-1.03-21.18C451.72,292.02,457.48,305.59,457.48,305.59z" class="st4"></path>
		</g>
		<g>
			<path d="M288.98,217.28c-0.15,0-0.3-0.01-0.45-0.03c-1.89-0.25-3.23-1.98-2.98-3.87c1.25-9.58-8.34-51.6-15.04-56.38
				c-5.55-3.96-9.7,0.78-10.48,1.77c-1.17,1.5-3.34,1.77-4.84,0.61c-1.5-1.16-1.79-3.31-0.64-4.82c0.22-0.29,2.22-2.84,5.55-4.53
				c4.72-2.4,9.84-1.93,14.42,1.35c10.21,7.29,19.12,53.36,17.87,62.9C292.17,216.01,290.69,217.28,288.98,217.28z" class="st3"></path>
		</g>
		<g>
			<path d="M235.09,233.57c0,0-10.55-5.08-11.36-22.82c-0.82-17.97-2-47.34,17.33-48.17c19.33-0.82,17.88,57,17.88,57
				L235.09,233.57z" class="st1"></path>
		</g>
		<g>
			<ellipse ry="7.2" rx="4.73" cy="304.11" cx="346.76" class="st3"></ellipse>
			<path d="M346.76,314.76c-4.59,0-8.19-4.68-8.19-10.65s3.6-10.65,8.19-10.65c4.59,0,8.18,4.68,8.18,10.65
				S351.35,314.76,346.76,314.76z M346.76,300.4c-0.42,0.27-1.28,1.58-1.28,3.71s0.85,3.44,1.28,3.71c0.42-0.27,1.27-1.58,1.27-3.71
				S347.19,300.67,346.76,300.4z" class="st3"></path>
		</g>
		<g>
			<path d="M436.61,375.08c-2.01,0-3.86-0.49-5.53-1.46c-3.67-2.15-5.39-6.09-6.19-9.24
				c-3.41,0.96-8.19,1.54-11.98-0.85c-3.5-2.21-5.24-6.22-5.16-11.92c0.08-6.68,2.95-9.79,5.35-11.23
				c4.86-2.92,11.44-1.26,15.36,0.2l9.93-20.52c-2.8-2.62-7.1-7.65-6.79-13.58c0.24-4.54,3.03-8.4,8.29-11.49
				c3.42-2.02,7-2.51,10.34-1.41c4.44,1.46,7.43,5.32,9.04,7.99c3.1-0.59,8.08-0.96,12.36,1.39c3.27,1.8,5.51,4.92,6.49,9.02
				c1.39,5.85-0.08,10.94-4.14,14.33c-3.94,3.29-9.85,4.47-15.26,3.24c-2.46,5.09-7.41,14.79-9.92,19.69
				c2.42,2.49,5.89,7.06,5.39,12.38c-0.42,4.44-3.41,8.14-8.89,10.98C442.13,374.26,439.23,375.08,436.61,375.08z M427.66,356.23
				c0.62,0,1.24,0.17,1.78,0.49c1,0.6,1.64,1.67,1.68,2.84c0.07,1.61,0.85,6.58,3.47,8.1c2.05,1.19,5.23,0.02,7.53-1.18
				c3.26-1.69,5-3.54,5.2-5.49c0.32-3.29-3.55-7.17-4.93-8.27c-1.29-1.03-1.68-2.82-0.93-4.29c5.49-10.69,11.62-22.84,12.17-24.28
				c0.33-0.89,1.02-1.61,1.89-1.98c0.87-0.37,1.87-0.38,2.73,0c3.72,1.62,8.58,1.13,11.3-1.15c2-1.67,2.62-4.17,1.85-7.43
				c-0.52-2.21-1.53-3.7-3.08-4.56c-3.16-1.75-8.09-0.72-9.72-0.17c-1.71,0.57-3.58-0.26-4.29-1.91l0,0
				c-0.67-1.54-3.09-5.78-6.24-6.8c-1.43-0.46-2.96-0.2-4.66,0.81c-3.14,1.84-4.78,3.82-4.9,5.88c-0.21,3.85,4.54,8.29,6.22,9.55
				c1.33,0.99,1.77,2.79,1.05,4.28l-12.54,25.91c-0.41,0.84-1.13,1.48-2.02,1.77c-0.88,0.3-1.85,0.22-2.68-0.21
				c-2.63-1.35-9-3.58-11.89-1.83c-1.28,0.77-1.95,2.59-1.99,5.39c-0.03,2.15,0.29,4.94,1.93,5.98c2.39,1.51,7.46-0.09,9.54-1.11
				C426.62,356.34,427.14,356.23,427.66,356.23z" class="st3"></path>
		</g>
		<g>
			<ellipse ry="2.24" rx="2.1" cy="307.09" cx="396.84" class="st5"></ellipse>
		</g>
	</g>
</g>
</svg>
